<svg width="32" height="50" viewBox="0 0 32 50" fill="none" xmlns="http://www.w3.org/2000/svg">
<path d="M7.87545 1.12181C7.97067 0.797855 8.16827 0.513465 8.43867 0.311231C8.70906 0.108997 9.0377 -0.000197446 9.37536 2.6802e-07H21.8746C22.122 0.000188094 22.3659 0.0591402 22.5861 0.172003C22.8063 0.284867 22.9965 0.448414 23.1412 0.649181C23.2858 0.849947 23.3807 1.08219 23.418 1.3268C23.4553 1.5714 23.434 1.82137 23.3558 2.05613L17.7936 18.7489H29.6866C29.9792 18.7487 30.266 18.8306 30.5143 18.9854C30.7626 19.1402 30.9624 19.3616 31.0911 19.6244C31.2197 19.8872 31.2719 20.1808 31.2419 20.4719C31.2118 20.7629 31.1006 21.0397 30.921 21.2706L9.04725 49.3939C8.82317 49.6834 8.50455 49.885 8.14699 49.9636C7.78944 50.0422 7.41565 49.9927 7.09086 49.8238C6.76607 49.6548 6.5109 49.3773 6.36988 49.0394C6.22887 48.7016 6.21096 48.325 6.31929 47.9753L11.9471 29.6857H1.56332C1.32041 29.6859 1.08082 29.6294 0.863563 29.5207C0.646308 29.4121 0.457379 29.2543 0.311779 29.0598C0.16618 28.8654 0.0679217 28.6397 0.0248075 28.4006C-0.0183066 28.1616 -0.00508901 27.9158 0.0634112 27.6827L7.87545 1.12181ZM10.544 3.12481L3.6507 26.5609H14.0626C14.3071 26.5609 14.5482 26.6182 14.7665 26.7283C14.9848 26.8384 15.1742 26.9983 15.3195 27.1949C15.4648 27.3916 15.5619 27.6196 15.603 27.8606C15.6442 28.1017 15.6281 28.349 15.5562 28.5827L11.8127 40.7476L26.4931 21.8737H15.625C15.3776 21.8735 15.1337 21.8146 14.9135 21.7017C14.6933 21.5888 14.5031 21.4253 14.3584 21.2245C14.2138 21.0238 14.1189 20.7915 14.0816 20.5469C14.0443 20.3023 14.0656 20.0523 14.1438 19.8176L19.706 3.12481H10.544Z" fill="#7ABFFF"/>
</svg>
