<svg width="30" height="29" viewBox="0 0 30 29" fill="none" xmlns="http://www.w3.org/2000/svg">
<path d="M25.5882 22.9412H6.17647C5.91176 22.9412 5.64706 22.7647 5.47059 22.5882C5.29412 22.4118 5.29412 22.0588 5.38235 21.7941L7.05882 17.5588L5.38235 1.76471H0V0H6.17647C6.61765 0 6.97059 0.352941 7.05882 0.794117L8.82353 17.5588C8.82353 17.7353 8.82353 17.8235 8.73529 18L7.5 21.1765H26.4706L25.5882 22.9412Z" fill="#7ABFFF"/>
<path d="M8.11759 18.5294L7.76465 16.7647L28.2352 12.5294V5.29412H7.05877V3.52942H29.1176C29.647 3.52942 29.9999 3.88236 29.9999 4.41177V13.2353C29.9999 13.6765 29.7352 14.0294 29.2941 14.1177L8.11759 18.5294ZM26.4705 28.2353C24.5294 28.2353 22.9411 26.6471 22.9411 24.7059C22.9411 22.7647 24.5294 21.1765 26.4705 21.1765C28.4117 21.1765 29.9999 22.7647 29.9999 24.7059C29.9999 26.6471 28.4117 28.2353 26.4705 28.2353ZM26.4705 22.9412C25.4999 22.9412 24.7058 23.7353 24.7058 24.7059C24.7058 25.6765 25.4999 26.4706 26.4705 26.4706C27.4411 26.4706 28.2352 25.6765 28.2352 24.7059C28.2352 23.7353 27.4411 22.9412 26.4705 22.9412ZM5.29406 28.2353C3.35288 28.2353 1.76465 26.6471 1.76465 24.7059C1.76465 22.7647 3.35288 21.1765 5.29406 21.1765C7.23524 21.1765 8.82347 22.7647 8.82347 24.7059C8.82347 26.6471 7.23524 28.2353 5.29406 28.2353ZM5.29406 22.9412C4.32347 22.9412 3.52935 23.7353 3.52935 24.7059C3.52935 25.6765 4.32347 26.4706 5.29406 26.4706C6.26465 26.4706 7.05877 25.6765 7.05877 24.7059C7.05877 23.7353 6.26465 22.9412 5.29406 22.9412Z" fill="#7ABFFF"/>
</svg>
