<svg width="16" height="50" viewBox="0 0 16 50" fill="none" xmlns="http://www.w3.org/2000/svg">
<path fill-rule="evenodd" clip-rule="evenodd" d="M1.06793 0.203716C1.52378 -0.0247015 2.0517 -0.0626859 2.53555 0.0981186C3.01941 0.258923 3.41957 0.605345 3.64802 1.06118L15.1834 24.132C15.3174 24.3993 15.3871 24.6943 15.3871 24.9933C15.3871 25.2923 15.3174 25.5873 15.1834 25.8546L3.64802 48.9254C3.5361 49.1531 3.38022 49.3564 3.18936 49.5236C2.9985 49.6908 2.77643 49.8186 2.53597 49.8995C2.2955 49.9805 2.04139 50.013 1.78828 49.9953C1.53517 49.9776 1.28807 49.9099 1.06123 49.7963C0.834392 49.6826 0.632295 49.5251 0.466595 49.333C0.300895 49.1408 0.17487 48.9178 0.095782 48.6767C0.0166946 48.4356 -0.0138891 48.1813 0.0057937 47.9283C0.0254765 47.6753 0.0950366 47.4288 0.210464 47.2028L11.3114 24.9933L0.210464 2.7838C-0.0179539 2.32795 -0.0559392 1.80004 0.104865 1.31618C0.26567 0.832325 0.612093 0.432162 1.06793 0.203716V0.203716Z" fill="#7ABFFF"/>
</svg>
