<svg width="16" height="50" viewBox="0 0 16 50" fill="none" xmlns="http://www.w3.org/2000/svg">
<path fill-rule="evenodd" clip-rule="evenodd" d="M14.3158 0.202186C14.7707 0.430645 15.1164 0.830147 15.2771 1.3131C15.4378 1.79605 15.4005 2.32303 15.1733 2.77851L4.07206 24.9925L15.1772 47.2027C15.2926 47.4287 15.3621 47.6753 15.3818 47.9282C15.4015 48.1812 15.3709 48.4356 15.2918 48.6767C15.2127 48.9178 15.0867 49.1408 14.921 49.333C14.7553 49.5251 14.5532 49.6826 14.3264 49.7963C14.0995 49.9099 13.8524 49.9776 13.5993 49.9953C13.3462 50.013 13.0921 49.9805 12.8516 49.8995C12.6111 49.8186 12.389 49.6908 12.1982 49.5236C12.0073 49.3564 11.8514 49.1531 11.7395 48.9254L0.203734 25.8539C0.0697599 25.5865 0 25.2916 0 24.9925C0 24.6935 0.0697599 24.3986 0.203734 24.1312L11.7395 1.05968C11.968 0.60483 12.3675 0.259136 12.8504 0.0983925C13.3334 -0.0623509 13.8603 -0.0250252 14.3158 0.202186V0.202186Z" fill="#7ABFFF"/>
</svg>
