<svg width="45" height="45" viewBox="0 0 45 45" fill="none" xmlns="http://www.w3.org/2000/svg">
<path d="M32.0297 21.1392C33.6548 19.7784 34.6883 17.7344 34.6883 15.4489C34.6883 13.1637 33.6548 11.1197 32.0297 9.75883C32.216 9.66863 32.3952 9.57076 32.566 9.46469C33.6439 8.79447 34.9162 8.40741 36.2789 8.40741C40.168 8.40741 43.3207 11.5601 43.3207 15.4489C43.3207 19.3379 40.168 22.4905 36.2789 22.4905C34.9162 22.4905 33.6439 22.1035 32.566 21.4333C32.3952 21.3273 32.216 21.2294 32.0297 21.1392Z" fill="url(#paint0_linear_5_34)"/>
<path d="M30.074 16.5576C30.8009 14.5666 30.6739 12.2797 29.5311 10.3005C28.3884 8.32136 26.4713 7.06791 24.3835 6.70192C24.4998 6.53074 24.606 6.35635 24.7007 6.17911C25.2992 5.05976 26.2075 4.08842 27.3876 3.40709C30.7558 1.46261 35.0626 2.61655 37.0071 5.98449C38.9516 9.35243 37.7976 13.659 34.4295 15.6035C33.2494 16.2848 31.954 16.5857 30.6853 16.5443C30.4845 16.5377 30.2803 16.5426 30.074 16.5576Z" fill="url(#paint1_linear_5_34)"/>
<path d="M26.0891 13.5676C25.7232 11.4798 24.4696 9.56287 22.4904 8.42019C20.5111 7.27751 18.2242 7.15048 16.2331 7.87738C16.2482 7.67104 16.253 7.46687 16.2464 7.26603C16.205 5.99743 16.5059 4.70208 17.1873 3.52196C19.1319 0.15403 23.4386 -0.999911 26.8067 0.944569C30.1747 2.88905 31.3288 7.19562 29.3841 10.5636C28.7028 11.7437 27.7314 12.652 26.612 13.2504C26.4348 13.3451 26.2604 13.4513 26.0891 13.5676Z" fill="url(#paint2_linear_5_34)"/>
<path d="M21.1425 12.9705C19.7816 11.3455 17.7375 10.3121 15.452 10.3121C13.1665 10.3121 11.1225 11.3455 9.76161 12.9705C9.67147 12.7843 9.57357 12.6051 9.46745 12.4343C8.79724 11.3564 8.41016 10.0842 8.41016 8.72153C8.41016 4.83256 11.5629 1.67993 15.452 1.67993C19.3412 1.67993 22.4939 4.83256 22.4939 8.72153C22.4939 10.0842 22.1068 11.3564 21.4366 12.4343C21.3304 12.6051 21.2326 12.7843 21.1425 12.9705Z" fill="url(#paint3_linear_5_34)"/>
<path d="M16.5596 14.9264C14.5685 14.1996 12.2815 14.3266 10.3022 15.4692C8.32295 16.6119 7.06944 18.5288 6.70345 20.6166C6.53226 20.5003 6.35785 20.3941 6.18061 20.2994C5.06122 19.701 4.08984 18.7927 3.40848 17.6126C1.46391 14.2446 2.6179 9.93809 5.98598 7.99359C9.35405 6.0491 13.6608 7.20304 15.6054 10.571C16.2868 11.7511 16.5877 13.0464 16.5461 14.315C16.5396 14.5158 16.5445 14.72 16.5596 14.9264Z" fill="url(#paint4_linear_5_34)"/>
<path d="M13.5682 18.9116C11.4803 19.2776 9.5633 20.5311 8.42057 22.5102C7.27784 24.4894 7.15081 26.7763 7.87775 28.7673C7.67138 28.7522 7.46718 28.7474 7.2663 28.7539C5.99766 28.7954 4.70226 28.4945 3.52211 27.8132C0.154036 25.8686 -0.999951 21.5621 0.944607 18.1941C2.88916 14.8262 7.1959 13.6722 10.564 15.6168C11.7441 16.2981 12.6524 17.2694 13.2509 18.3887C13.3456 18.5659 13.452 18.7403 13.5682 18.9116Z" fill="url(#paint5_linear_5_34)"/>
<path d="M12.97 23.8582C11.3449 25.2191 10.3115 27.2631 10.3115 29.5484C10.3115 31.8338 11.3449 33.8778 12.97 35.2386C12.7838 35.3287 12.6045 35.4267 12.4339 35.5328C11.3559 36.2029 10.0836 36.59 8.72088 36.59C4.83177 36.59 1.67902 33.4374 1.67902 29.5484C1.67902 25.6594 4.83177 22.5068 8.72088 22.5068C10.0836 22.5068 11.3559 22.8938 12.4339 23.5641C12.6045 23.6702 12.7838 23.7681 12.97 23.8582Z" fill="url(#paint6_linear_5_34)"/>
<path d="M14.9254 28.4411C14.1983 30.4321 14.3254 32.719 15.4681 34.6981C16.6109 36.6775 18.5279 37.9308 20.6157 38.2968C20.4995 38.468 20.3933 38.6424 20.2985 38.8197C19.7001 39.939 18.7917 40.9103 17.6116 41.5916C14.2435 43.5362 9.93677 42.3821 7.99222 39.0143C6.04765 35.6463 7.20165 31.3398 10.5697 29.3952C11.7499 28.7139 13.0453 28.413 14.3139 28.4545C14.5147 28.461 14.719 28.4562 14.9254 28.4411Z" fill="url(#paint7_linear_5_34)"/>
<path d="M18.9105 31.4325C19.2765 33.5202 20.53 35.4372 22.5092 36.5798C24.4885 37.7225 26.7756 37.8495 28.7667 37.1226C28.7516 37.329 28.7467 37.5331 28.7533 37.7341C28.7948 39.0026 28.4939 40.298 27.8125 41.4781C25.8679 44.8461 21.5612 46 18.1931 44.0554C14.8249 42.111 13.671 37.8045 15.6156 34.4365C16.297 33.2564 17.2683 32.3481 18.3876 31.7497C18.5649 31.6549 18.7393 31.5486 18.9105 31.4325Z" fill="url(#paint8_linear_5_34)"/>
<path d="M23.8572 32.0306C25.2181 33.6557 27.2622 34.6891 29.5477 34.6891C31.8332 34.6891 33.8773 33.6557 35.2382 32.0306C35.3283 32.2169 35.4261 32.3961 35.5323 32.5667C36.2025 33.6446 36.5896 34.917 36.5896 36.2796C36.5896 40.1686 33.4369 43.3212 29.5477 43.3212C25.6586 43.3212 22.5059 40.1686 22.5059 36.2796C22.5059 34.917 22.8929 33.6446 23.5631 32.5667C23.6693 32.3961 23.7672 32.2169 23.8572 32.0306Z" fill="url(#paint9_linear_5_34)"/>
<path d="M28.4404 30.0754C30.4315 30.8023 32.7185 30.6752 34.6977 29.5327C36.677 28.3899 37.9305 26.473 38.2965 24.3853C38.4676 24.5013 38.642 24.6077 38.8193 24.7024C39.9388 25.3009 40.9101 26.2092 41.5915 27.3892C43.5361 30.7572 42.382 35.0637 39.014 37.0083C35.6459 38.9527 31.3392 37.7988 29.3946 34.4308C28.7132 33.2508 28.4123 31.9554 28.4537 30.6868C28.4603 30.486 28.4555 30.2818 28.4404 30.0754Z" fill="url(#paint10_linear_5_34)"/>
<path d="M36.5836 22.4842C36.5822 22.4867 36.5808 22.4891 36.5793 22.4916C35.4367 24.4708 33.5197 25.7243 31.4319 26.0902C31.548 26.2615 31.6543 26.4359 31.7491 26.6131C32.3475 27.7325 33.2559 28.7038 34.436 29.3851C37.8041 31.3297 42.1108 30.1756 44.0554 26.8078C45.7224 23.9203 45.1121 20.343 42.7817 18.1557C41.7579 20.6125 39.3822 22.365 36.5836 22.4842Z" fill="url(#paint11_linear_5_34)"/>
<defs>
<linearGradient id="paint0_linear_5_34" x1="32.9114" y1="8.40741" x2="32.9114" y2="22.4905" gradientUnits="userSpaceOnUse">
<stop stop-color="#0085FF"/>
<stop offset="1" stop-color="#343537"/>
</linearGradient>
<linearGradient id="paint1_linear_5_34" x1="24.4714" y1="5.09074" x2="31.5128" y2="17.2874" gradientUnits="userSpaceOnUse">
<stop stop-color="#0085FF"/>
<stop offset="1" stop-color="#343537"/>
</linearGradient>
<linearGradient id="paint2_linear_5_34" x1="15.5036" y1="6.43815" x2="27.7002" y2="13.4801" gradientUnits="userSpaceOnUse">
<stop stop-color="#0085FF"/>
<stop offset="1" stop-color="#343537"/>
</linearGradient>
<linearGradient id="paint3_linear_5_34" x1="8.41016" y1="12.0888" x2="22.4939" y2="12.0888" gradientUnits="userSpaceOnUse">
<stop stop-color="#0085FF"/>
<stop offset="1" stop-color="#343537"/>
</linearGradient>
<linearGradient id="paint4_linear_5_34" x1="5.09221" y1="20.5287" x2="17.2888" y2="13.4867" gradientUnits="userSpaceOnUse">
<stop stop-color="#0085FF"/>
<stop offset="1" stop-color="#343537"/>
</linearGradient>
<linearGradient id="paint5_linear_5_34" x1="6.43843" y1="29.4968" x2="13.4799" y2="17.3001" gradientUnits="userSpaceOnUse">
<stop stop-color="#0085FF"/>
<stop offset="1" stop-color="#343537"/>
</linearGradient>
<linearGradient id="paint6_linear_5_34" x1="12.0883" y1="36.59" x2="12.0883" y2="22.5068" gradientUnits="userSpaceOnUse">
<stop stop-color="#0085FF"/>
<stop offset="1" stop-color="#343537"/>
</linearGradient>
<linearGradient id="paint7_linear_5_34" x1="20.5279" y1="39.908" x2="13.4864" y2="27.7114" gradientUnits="userSpaceOnUse">
<stop stop-color="#0085FF"/>
<stop offset="1" stop-color="#343537"/>
</linearGradient>
<linearGradient id="paint8_linear_5_34" x1="29.4962" y1="38.5619" x2="17.2995" y2="31.5198" gradientUnits="userSpaceOnUse">
<stop stop-color="#0085FF"/>
<stop offset="1" stop-color="#343537"/>
</linearGradient>
<linearGradient id="paint9_linear_5_34" x1="36.5896" y1="32.9123" x2="22.5059" y2="32.9123" gradientUnits="userSpaceOnUse">
<stop stop-color="#0085FF"/>
<stop offset="1" stop-color="#343537"/>
</linearGradient>
<linearGradient id="paint10_linear_5_34" x1="39.9078" y1="24.4731" x2="27.7112" y2="31.5151" gradientUnits="userSpaceOnUse">
<stop stop-color="#0085FF"/>
<stop offset="1" stop-color="#343537"/>
</linearGradient>
<linearGradient id="paint11_linear_5_34" x1="38.5616" y1="15.5051" x2="31.5201" y2="27.7017" gradientUnits="userSpaceOnUse">
<stop stop-color="#0085FF"/>
<stop offset="1" stop-color="#343537"/>
</linearGradient>
</defs>
</svg>
