<svg width="117" height="50" viewBox="0 0 117 50" fill="none" xmlns="http://www.w3.org/2000/svg">
<path d="M108.342 0C103.748 0 100.015 3.72387 100.015 8.32766C100.015 14.5698 97.9339 16.6602 91.6821 16.6602C87.088 16.6602 83.3544 20.3841 83.3544 24.9878C83.3544 31.2348 81.2737 33.3204 75.0219 33.3204C73.3737 33.3204 71.7625 33.8092 70.3921 34.725C69.0217 35.6408 67.9537 36.9424 67.3232 38.4653C66.6926 39.9882 66.5279 41.6638 66.8498 43.2803C67.1717 44.8968 67.9658 46.3815 69.1316 47.5466C70.2974 48.7117 71.7826 49.5049 73.3993 49.8259C75.0159 50.1469 76.6915 49.9812 78.214 49.3498C79.7365 48.7183 81.0375 47.6496 81.9525 46.2787C82.8675 44.9077 83.3554 43.2963 83.3544 41.648C83.3544 35.4059 85.4302 33.3204 91.6821 33.3204C96.281 33.3204 100.015 29.5916 100.015 24.9878C100.015 18.7457 102.09 16.6602 108.342 16.6602C110.517 16.6077 112.584 15.707 114.104 14.1505C115.623 12.594 116.474 10.5052 116.474 8.33009C116.474 6.15502 115.623 4.06617 114.104 2.5097C112.584 0.953228 110.517 0.0525335 108.342 0ZM41.6626 0.00486341C37.0685 0.00486341 33.335 3.73359 33.335 8.33739C33.335 14.5795 31.2543 16.665 25.0024 16.665C23.3546 16.666 21.7441 17.1555 20.3745 18.0717C19.0048 18.9879 17.9376 20.2896 17.3077 21.8122C16.6777 23.3349 16.5134 25.0101 16.8355 26.6261C17.1575 28.2422 17.9515 29.7264 19.117 30.8913C20.2825 32.0561 21.7673 32.8492 23.3835 33.1703C24.9997 33.4915 26.6749 33.3262 28.1971 32.6954C29.7194 32.0645 31.0205 30.9965 31.9359 29.6264C32.8512 28.2562 33.3398 26.6454 33.3398 24.9976C33.3398 18.7555 35.4254 16.665 41.6675 16.665C47.9096 16.665 50 18.7457 50 24.9976C50.0738 27.1582 50.984 29.2057 52.5386 30.7081C54.0932 32.2105 56.1706 33.0503 58.3325 33.0503C60.4944 33.0503 62.5718 32.2105 64.1264 30.7081C65.681 29.2057 66.5912 27.1582 66.665 24.9976C66.665 20.4035 62.9412 16.665 58.3228 16.665C52.0758 16.665 49.9903 14.5892 49.9903 8.33739C49.9903 3.74332 46.2567 0.00486341 41.6578 0.00486341H41.6626ZM8.33252 33.335C7.23787 33.335 6.15395 33.5506 5.14268 33.9697C4.13142 34.3887 3.21263 35.003 2.43882 35.7772C1.66501 36.5515 1.05134 37.4706 0.632881 38.4821C0.214419 39.4936 -0.000637235 40.5777 1.41829e-06 41.6723C0.00129026 43.8814 0.879748 45.9996 2.44226 47.5612C4.00477 49.1228 6.12344 50 8.33252 50C10.5408 49.9987 12.6582 49.1209 14.2196 47.5595C15.7811 45.998 16.6589 43.8806 16.6602 41.6723C16.6602 39.4633 15.783 37.3446 14.2214 35.7821C12.6598 34.2196 10.5416 33.3411 8.33252 33.3398V33.335Z" fill="#7ABFFF"/>
</svg>
