<svg width="58" height="50" viewBox="0 0 58 50" fill="none" xmlns="http://www.w3.org/2000/svg">
<path d="M42.9219 0C45.9796 0 50.1699 1.69875 52.1518 3.68063L53.8505 5.37939C55.9456 7.58777 57.248 11.2684 57.4745 14.4394V16.5345C57.0215 23.1031 52.4349 28.0861 47.1121 29.8981C44.0544 30.974 43.0917 30.3511 42.1857 31.0306L30.8607 39.3545C30.3511 39.7508 30.1812 39.8075 29.8981 40.034C29.1053 46.4326 23.4994 50 17.9502 50C13.9298 50 10.0226 48.1314 7.92752 44.111C7.19139 42.6954 7.13477 42.1857 6.85164 41.5062L1.24575 39.2412C0.792752 39.0713 0.226501 38.7316 0.11325 38.0521L0 37.3726V25.3114C0.0566251 24.1223 0.736127 23.4994 1.64213 23.4994C1.86863 23.4994 2.09513 23.5561 2.37826 23.6127C5.83239 25.0283 9.34315 26.3307 12.7407 27.8029L13.6467 27.4066C15.5153 26.6138 16.5912 26.5006 18.6297 26.5006C18.9128 26.1042 19.3092 25.5379 19.5357 25.1982L24.5753 18.0068C24.9717 17.4972 26.3307 15.5719 26.7837 14.7792C27.1234 9.73952 28.7089 7.13477 31.8233 3.96376C34.2582 1.64213 38.5617 0 42.9219 0ZM18.3465 28.9921C16.4213 28.9921 15.855 29.2186 13.59 30.1812C13.3069 30.2945 13.0238 30.3511 12.7973 30.3511C12.1178 30.3511 11.4383 29.9547 10.872 29.7282C8.09739 28.5957 5.26614 27.4632 2.49151 26.3307V37.0328L8.09739 39.2978C9.51302 39.9773 9.17327 41.2231 10.1359 42.9785C11.7214 46.0929 14.8358 47.5085 18.0068 47.5085C22.3103 47.5085 26.6138 44.8471 27.3499 40.034L27.4632 39.4111C27.6331 38.3352 28.3692 38.0521 29.3318 37.316L40.7135 28.9921C42.3556 27.8029 43.7146 28.4258 46.3194 27.5198C50.7361 25.9909 54.5866 21.8573 54.983 16.3647V14.5527C54.8131 12.0045 53.6806 9.06002 52.0385 7.13477L50.3964 5.49264C48.4145 3.68063 45.1302 2.49151 41.9026 2.49151C40.2038 2.49151 38.4485 2.83126 36.9196 3.56738C32.1065 5.94564 29.5017 9.79615 29.0487 15.7984C28.7089 16.4213 26.8969 19.026 26.5572 19.479L21.5742 26.6138C20.7248 27.5198 20.7248 28.8222 19.3092 28.9921H18.3465ZM17.8369 45.017C16.5912 45.017 15.2888 44.3941 14.5527 43.8845C13.9298 43.4315 12.684 42.4122 12.4575 41.6195C13.8165 41.9592 15.6852 43.2616 17.7803 43.2616C18.9128 43.2616 20.1585 42.8086 21.4043 41.6761C22.4802 40.6569 23.0464 39.1846 23.0464 37.7123C22.8199 34.0883 20.2152 32.5595 17.1574 31.7101C17.2707 31.5402 17.214 31.4836 17.4972 31.4836H18.12C22.2537 31.4836 24.9717 34.7112 24.9717 38.222C24.9717 41.6195 22.5934 45.017 17.8369 45.017ZM34.9943 15.0057C34.9943 10.872 38.3352 7.47452 42.4689 7.47452C46.6025 7.47452 50 10.872 50 15.0057C50 19.1393 46.6025 22.4802 42.4689 22.4802C38.3352 22.4802 34.9943 19.1393 34.9943 15.0057ZM37.4858 15.0057C37.4858 17.7803 39.6942 19.9887 42.4689 19.9887C45.2435 19.9887 47.5085 17.7803 47.5085 15.0057C47.5085 12.231 45.2435 9.96603 42.4689 9.96603C39.6942 9.96603 37.4858 12.231 37.4858 15.0057Z" fill="#7ABFFF"/>
</svg>
